<?xml version="1.0" encoding="UTF-8"?>
<!DOCTYPE svg PUBLIC "-//W3C//DTD SVG 1.1//EN" "http://www.w3.org/Graphics/SVG/1.1/DTD/svg11.dtd">
<svg xmlns="http://www.w3.org/2000/svg" version="1.1" width="605px" height="340px" style="shape-rendering:geometricPrecision; text-rendering:geometricPrecision; image-rendering:optimizeQuality; fill-rule:evenodd; clip-rule:evenodd" xmlns:xlink="http://www.w3.org/1999/xlink">
<g><path style="opacity:1" fill="#024586" d="M 158.5,13.5 C 162.833,13.5 167.167,13.5 171.5,13.5C 171.168,67.6692 171.501,121.669 172.5,175.5C 172.842,176.338 173.508,176.672 174.5,176.5C 217.991,207.746 261.658,238.746 305.5,269.5C 281.526,303.242 249.192,325.075 208.5,335C 202.536,336.216 196.536,337.216 190.5,338C 191.737,338.232 192.737,338.732 193.5,339.5C 179.833,339.5 166.167,339.5 152.5,339.5C 152.918,338.778 153.584,338.278 154.5,338C 89.4247,328.243 44.2581,293.077 19,232.5C -3.07834,161.976 12.755,101.476 66.5,51C 93.1313,28.859 123.798,16.359 158.5,13.5 Z"/></g>
<g><path style="opacity:1" fill="#256188" d="M 158.5,13.5 C 162.97,12.5139 167.637,12.1805 172.5,12.5C 172.5,66.8333 172.5,121.167 172.5,175.5C 171.501,121.669 171.168,67.6692 171.5,13.5C 167.167,13.5 162.833,13.5 158.5,13.5 Z"/></g>
<g><path style="opacity:1" fill="#579d1c" d="M 172.5,12.5 C 240.714,15.2631 290.214,46.9298 321,107.5C 325.074,116.889 328.241,126.556 330.5,136.5C 277.833,149.5 225.167,162.5 172.5,175.5C 172.5,121.167 172.5,66.8333 172.5,12.5 Z"/></g>
<g><path style="opacity:1" fill="#004486" d="M 368.5,66.5 C 375.5,66.5 382.5,66.5 389.5,66.5C 389.5,72.8333 389.5,79.1667 389.5,85.5C 382.5,85.5 375.5,85.5 368.5,85.5C 368.5,79.1667 368.5,72.8333 368.5,66.5 Z"/></g>
<g><path style="opacity:0.734" fill="#000000" d="M 395.5,69.5 C 398.898,69.1796 402.232,69.513 405.5,70.5C 404.311,71.4287 402.978,71.762 401.5,71.5C 400.833,84.8333 400.167,84.8333 399.5,71.5C 397.517,71.8432 396.183,71.1765 395.5,69.5 Z"/></g>
<g><path style="opacity:0.503" fill="#000000" d="M 465.5,69.5 C 466.5,69.5 467.5,69.5 468.5,69.5C 468.5,70.5 468.5,71.5 468.5,72.5C 472.5,73.1667 472.5,73.8333 468.5,74.5C 468.5,76.1667 468.5,77.8333 468.5,79.5C 470.355,79.272 471.188,79.9387 471,81.5C 469.667,82.8333 468.333,82.8333 467,81.5C 465.798,79.3225 465.298,76.9892 465.5,74.5C 464.178,74.33 463.011,74.6634 462,75.5C 461.505,77.4727 461.338,79.4727 461.5,81.5C 460.5,81.5 459.5,81.5 458.5,81.5C 458.5,78.5 458.5,75.5 458.5,72.5C 460.833,72.5 463.167,72.5 465.5,72.5C 465.5,71.5 465.5,70.5 465.5,69.5 Z"/></g>
<g><path style="opacity:0.576" fill="#000000" d="M 404.5,72.5 C 409.167,72.5 413.833,72.5 418.5,72.5C 418.5,75.5 418.5,78.5 418.5,81.5C 415.673,82.9735 413.173,82.6402 411,80.5C 410.219,79.0563 410.386,77.723 411.5,76.5C 413.115,75.846 414.782,75.346 416.5,75C 413.571,74.2228 410.737,74.3895 408,75.5C 407.505,77.4727 407.338,79.4727 407.5,81.5C 406.5,81.5 405.5,81.5 404.5,81.5C 404.5,78.5 404.5,75.5 404.5,72.5 Z M 413.5,77.5 C 414.675,77.281 415.675,77.6143 416.5,78.5C 414.948,79.7979 413.948,79.4646 413.5,77.5 Z"/></g>
<g><path style="opacity:0.509" fill="#000000" d="M 420.5,72.5 C 423.187,72.3359 425.854,72.5026 428.5,73C 429.444,75.7191 429.777,78.5525 429.5,81.5C 428.5,81.5 427.5,81.5 426.5,81.5C 426.808,79.076 426.474,76.7427 425.5,74.5C 424.914,74.7093 424.414,75.0426 424,75.5C 423.505,77.4727 423.338,79.4727 423.5,81.5C 422.5,81.5 421.5,81.5 420.5,81.5C 420.5,78.5 420.5,75.5 420.5,72.5 Z"/></g>
<g><path style="opacity:0.514" fill="#000000" d="M 431.5,72.5 C 433.5,72.5 435.5,72.5 437.5,72.5C 437.649,73.552 437.483,74.552 437,75.5C 435.951,74.4829 434.784,74.3162 433.5,75C 439.859,77.3537 440.025,79.8537 434,82.5C 431.456,82.1786 430.456,80.8453 431,78.5C 432.388,79.5536 433.888,79.7203 435.5,79C 431.175,78.5025 429.841,76.3358 431.5,72.5 Z"/></g>
<g><path style="opacity:0.571" fill="#000000" d="M 439.5,72.5 C 443.219,71.7717 446.219,72.7717 448.5,75.5C 450.441,72.6658 453.107,71.8325 456.5,73C 457.602,75.4009 457.769,77.9009 457,80.5C 453.429,83.4001 450.596,82.7335 448.5,78.5C 446.975,81.3527 444.809,82.3527 442,81.5C 441.781,82.938 441.281,84.2713 440.5,85.5C 439.508,81.2172 439.174,76.8839 439.5,72.5 Z M 442.5,74.5 C 445.389,74.999 446.056,76.499 444.5,79C 443.552,79.4828 442.552,79.6495 441.5,79.5C 441.366,77.7085 441.699,76.0418 442.5,74.5 Z M 452.5,74.5 C 455.389,74.999 456.056,76.499 454.5,79C 453.552,79.4828 452.552,79.6495 451.5,79.5C 451.366,77.7085 451.699,76.0418 452.5,74.5 Z"/></g>
<g><path style="opacity:0.522" fill="#000000" d="M 479.5,72.5 C 483.833,71.6853 486.166,73.352 486.5,77.5C 484.143,77.3367 481.81,77.5034 479.5,78C 481.333,79.7875 483.333,79.9542 485.5,78.5C 486.739,80.0072 486.405,81.1739 484.5,82C 477.279,82.0129 475.612,78.8462 479.5,72.5 Z"/></g>
<g><path style="opacity:0.68" fill="#000000" d="M 487.5,72.5 C 495.23,71.1428 497.563,74.1428 494.5,81.5C 492.5,72.1667 490.5,72.1667 488.5,81.5C 487.516,78.5719 487.183,75.5719 487.5,72.5 Z"/></g>
<g><path style="opacity:0.497" fill="#000000" d="M 510.5,75.5 C 508.883,74.962 507.216,74.6287 505.5,74.5C 505.5,76.1667 505.5,77.8333 505.5,79.5C 507.292,79.634 508.958,79.3007 510.5,78.5C 509.539,82.9962 507.206,83.6629 503.5,80.5C 501.459,74.2009 503.792,71.5342 510.5,72.5C 510.5,73.5 510.5,74.5 510.5,75.5 Z"/></g>
<g><path style="opacity:0.538" fill="#000000" d="M 510.5,78.5 C 510.5,77.5 510.5,76.5 510.5,75.5C 512.631,72.443 515.464,71.7763 519,73.5C 521.135,80.1796 518.968,82.8462 512.5,81.5C 511.824,80.3984 511.158,79.3984 510.5,78.5 Z M 514.5,74.5 C 517.389,74.999 518.056,76.499 516.5,79C 515.552,79.4828 514.552,79.6495 513.5,79.5C 513.366,77.7085 513.699,76.0418 514.5,74.5 Z"/></g>
<g><path style="opacity:0.634" fill="#000000" d="M 521.5,72.5 C 525.833,72.5 530.167,72.5 534.5,72.5C 534.817,75.5719 534.484,78.5719 533.5,81.5C 532.526,79.2573 532.192,76.924 532.5,74.5C 531.5,74.5 530.5,74.5 529.5,74.5C 529.5,76.8333 529.5,79.1667 529.5,81.5C 528.5,81.5 527.5,81.5 526.5,81.5C 525.938,72.4304 524.605,72.4304 522.5,81.5C 521.516,78.5719 521.183,75.5719 521.5,72.5 Z"/></g>
<g><path style="opacity:0.58" fill="#000000" d="M 536.5,72.5 C 540.989,72.9445 545.323,73.1111 549.5,73C 550.444,75.7191 550.777,78.5525 550.5,81.5C 549.5,81.5 548.5,81.5 547.5,81.5C 546.938,72.4304 545.605,72.4304 543.5,81.5C 542.526,79.2573 542.192,76.924 542.5,74.5C 541.5,74.5 540.5,74.5 539.5,74.5C 539.5,76.8333 539.5,79.1667 539.5,81.5C 538.5,81.5 537.5,81.5 536.5,81.5C 536.5,78.5 536.5,75.5 536.5,72.5 Z"/></g>
<g><path style="opacity:0.556" fill="#000000" d="M 552.5,72.5 C 554.344,74.2789 555.01,76.6122 554.5,79.5C 555.5,79.5 556.5,79.5 557.5,79.5C 557.5,77.1667 557.5,74.8333 557.5,72.5C 558.5,72.5 559.5,72.5 560.5,72.5C 560.5,75.5 560.5,78.5 560.5,81.5C 557.932,82.4496 555.432,82.4496 553,81.5C 552.502,78.5184 552.335,75.5184 552.5,72.5 Z"/></g>
<g><path style="opacity:0.68" fill="#000000" d="M 562.5,72.5 C 570.23,71.1428 572.563,74.1428 569.5,81.5C 567.5,72.1667 565.5,72.1667 563.5,81.5C 562.516,78.5719 562.183,75.5719 562.5,72.5 Z"/></g>
<g><path style="opacity:1" fill="#0b1103" d="M 215.5,81.5 C 218.518,81.3354 221.518,81.502 224.5,82C 226.444,84.1529 226.944,86.6529 226,89.5C 223.5,92 221,94.5 218.5,97C 221.553,97.1786 224.553,97.6786 227.5,98.5C 223.555,99.4909 219.555,99.8242 215.5,99.5C 215.351,98.448 215.517,97.448 216,96.5C 219.773,93.8989 222.607,90.5656 224.5,86.5C 224.392,85.5581 224.059,84.7247 223.5,84C 221.101,83.289 218.768,83.4557 216.5,84.5C 215.614,83.675 215.281,82.675 215.5,81.5 Z"/></g>
<g><path style="opacity:1" fill="#080e02" d="M 234.5,81.5 C 237.97,80.8748 240.804,81.8748 243,84.5C 243.667,88.1667 243.667,91.8333 243,95.5C 241.309,99.2127 238.475,100.379 234.5,99C 233.299,98.0975 232.465,96.9308 232,95.5C 231.333,91.8333 231.333,88.1667 232,84.5C 232.698,83.3094 233.531,82.3094 234.5,81.5 Z"/></g>
<g><path style="opacity:1" fill="#0c1303" d="M 248.5,81.5 C 250.792,81.2436 252.959,81.5769 255,82.5C 255.777,85.4294 255.61,88.2628 254.5,91C 251.975,91.8959 249.808,91.3959 248,89.5C 247.278,86.7395 247.445,84.0728 248.5,81.5 Z"/></g>
<g><path style="opacity:1" fill="#52941a" d="M 235.5,83.5 C 237.722,83.178 239.556,83.8446 241,85.5C 241.667,88.5 241.667,91.5 241,94.5C 238.667,98.5 236.333,98.5 234,94.5C 233.013,90.5252 233.513,86.8585 235.5,83.5 Z"/></g>
<g><path style="opacity:1" fill="#51931a" d="M 250.5,82.5 C 252.89,82.6848 253.89,84.0182 253.5,86.5C 252.167,91.8333 250.833,91.8333 249.5,86.5C 249.623,85.0755 249.957,83.7421 250.5,82.5 Z"/></g>
<g><path style="opacity:1" fill="#0b1203" d="M 262.5,81.5 C 263.043,81.56 263.376,81.8933 263.5,82.5C 260.755,88.325 257.755,93.9916 254.5,99.5C 254.167,99.1667 253.833,98.8333 253.5,98.5C 256.258,92.6481 259.258,86.9815 262.5,81.5 Z"/></g>
<g><path style="opacity:1" fill="#0c1303" d="M 263.5,89.5 C 270.628,89.7063 272.294,92.873 268.5,99C 262.498,99.9931 260.332,97.4931 262,91.5C 262.717,90.9558 263.217,90.2891 263.5,89.5 Z"/></g>
<g><path style="opacity:1" fill="#4b8718" d="M 264.5,90.5 C 267.121,90.4772 268.455,91.8105 268.5,94.5C 268.253,97.7787 266.753,98.7787 264,97.5C 263.297,95.0709 263.463,92.7375 264.5,90.5 Z"/></g>
<g><path style="opacity:0.407" fill="#000000" d="M 410.5,132.5 C 414.193,133.247 414.193,134.58 410.5,136.5C 409.708,135.3 409.708,133.967 410.5,132.5 Z"/></g>
<g><path style="opacity:1" fill="#ff430f" d="M 375.5,132.5 C 379.803,132.545 384.136,132.879 388.5,133.5C 388.5,140.167 388.5,146.833 388.5,153.5C 381.833,153.5 375.167,153.5 368.5,153.5C 368.5,146.833 368.5,140.167 368.5,133.5C 371.059,133.802 373.393,133.468 375.5,132.5 Z"/></g>
<g><path style="opacity:0.456" fill="#000000" d="M 415.5,133.5 C 416.5,133.5 417.5,133.5 418.5,133.5C 418.5,137.833 418.5,142.167 418.5,146.5C 417.5,146.5 416.5,146.5 415.5,146.5C 415.5,142.167 415.5,137.833 415.5,133.5 Z"/></g>
<g><path style="opacity:0.56" fill="#000000" d="M 394.5,134.5 C 395.5,134.5 396.5,134.5 397.5,134.5C 399.167,146.5 400.833,146.5 402.5,134.5C 403.5,134.5 404.5,134.5 405.5,134.5C 401.833,150.5 398.167,150.5 394.5,134.5 Z"/></g>
<g><path style="opacity:1" fill="#fdd122" d="M 330.5,136.5 C 335.309,154.591 336.642,172.925 334.5,191.5C 333.051,189.836 331.051,189.002 328.5,189C 277.183,184.562 225.849,180.395 174.5,176.5C 173.508,176.672 172.842,176.338 172.5,175.5C 225.167,162.5 277.833,149.5 330.5,136.5 Z"/></g>
<g><path style="opacity:0.547" fill="#000000" d="M 407.5,137.5 C 409.527,137.338 411.527,137.505 413.5,138C 414.38,139.356 414.714,140.856 414.5,142.5C 412.473,142.338 410.473,142.505 408.5,143C 410.202,144.718 412.035,144.885 414,143.5C 413.455,147.582 411.289,148.416 407.5,146C 404.939,143.177 404.939,140.343 407.5,137.5 Z"/></g>
<g><path style="opacity:0.529" fill="#000000" d="M 421.5,137.5 C 428.035,137.061 430.035,139.895 427.5,146C 423.003,148.418 420.337,147.085 419.5,142C 419.519,140.167 420.185,138.667 421.5,137.5 Z M 422.5,139.5 C 427.833,141.167 427.833,142.833 422.5,144.5C 422.5,142.833 422.5,141.167 422.5,139.5 Z"/></g>
<g><path style="opacity:1" fill="#120e02" d="M 284.5,158.5 C 288.226,158.177 291.893,158.511 295.5,159.5C 292.572,160.484 289.572,160.817 286.5,160.5C 286.5,162.167 286.5,163.833 286.5,165.5C 293.163,164.333 295.997,166.999 295,173.5C 292.091,176.394 288.591,177.227 284.5,176C 283.289,175.107 283.289,174.274 284.5,173.5C 288.427,175.414 291.427,174.58 293.5,171C 293.241,169.739 292.574,168.739 291.5,168C 289.19,167.503 286.857,167.337 284.5,167.5C 284.5,164.5 284.5,161.5 284.5,158.5 Z"/></g>
<g><path style="opacity:1" fill="#1b1505" d="M 301.5,158.5 C 308.641,158.62 310.308,161.787 306.5,168C 300.498,168.993 298.332,166.493 300,160.5C 300.717,159.956 301.217,159.289 301.5,158.5 Z"/></g>
<g><path style="opacity:1" fill="#d7b11b" d="M 302.5,159.5 C 305.243,159.077 306.576,160.244 306.5,163C 306.534,166.581 305.034,167.748 302,166.5C 301.297,164.071 301.463,161.738 302.5,159.5 Z"/></g>
<g><path style="opacity:1" fill="#1c1605" d="M 314.5,158.5 C 315.239,158.369 315.906,158.536 316.5,159C 313.546,165.078 310.213,170.911 306.5,176.5C 308.454,170.557 311.12,164.557 314.5,158.5 Z"/></g>
<g><path style="opacity:1" fill="#161103" d="M 315.5,166.5 C 322.628,166.706 324.294,169.873 320.5,176C 314.498,176.993 312.332,174.493 314,168.5C 314.717,167.956 315.217,167.289 315.5,166.5 Z"/></g>
<g><path style="opacity:1" fill="#d5b01b" d="M 316.5,167.5 C 317.822,167.33 318.989,167.663 320,168.5C 320.667,170.5 320.667,172.5 320,174.5C 318.667,175.833 317.333,175.833 316,174.5C 315.297,172.071 315.463,169.738 316.5,167.5 Z"/></g>
<g><path style="opacity:1" fill="#fd430f" d="M 174.5,176.5 C 225.849,180.395 277.183,184.562 328.5,189C 331.051,189.002 333.051,189.836 334.5,191.5C 332.068,220.333 322.401,246.333 305.5,269.5C 261.658,238.746 217.991,207.746 174.5,176.5 Z"/></g>
<g><path style="opacity:1" fill="#020710" d="M 68.5,183.5 C 70.1667,183.5 71.8333,183.5 73.5,183.5C 73.5,184.5 73.5,185.5 73.5,186.5C 68.8254,185.339 66.1587,187.006 65.5,191.5C 74.216,190.537 76.5493,193.87 72.5,201.5C 68.2732,203.501 65.1065,202.501 63,198.5C 61.0867,191.97 62.92,186.97 68.5,183.5 Z"/></g>
<g><path style="opacity:1" fill="#020710" d="M 78.5,184.5 C 81.5184,184.335 84.5184,184.502 87.5,185C 89.4439,187.153 89.9439,189.653 89,192.5C 86.5,195 84,197.5 81.5,200C 84.5535,200.179 87.5535,200.679 90.5,201.5C 86.5546,202.491 82.5546,202.824 78.5,202.5C 78.3505,201.448 78.5172,200.448 79,199.5C 82.4274,196.58 85.2608,193.247 87.5,189.5C 87.3918,188.558 87.0585,187.725 86.5,187C 84.1009,186.289 81.7676,186.456 79.5,187.5C 78.6143,186.675 78.281,185.675 78.5,184.5 Z"/></g>
<g><path style="opacity:1" fill="#020913" d="M 95.5,184.5 C 97.7925,184.244 99.9592,184.577 102,185.5C 102.777,188.429 102.61,191.263 101.5,194C 99.2305,194.758 97.0639,194.591 95,193.5C 94.2642,190.408 94.4309,187.408 95.5,184.5 Z"/></g>
<g><path style="opacity:1" fill="#00407e" d="M 97.5,185.5 C 99.8896,185.685 100.89,187.018 100.5,189.5C 99.1667,194.833 97.8333,194.833 96.5,189.5C 96.6233,188.075 96.9566,186.742 97.5,185.5 Z"/></g>
<g><path style="opacity:0.372" fill="#000000" d="M 463.5,187.5 C 467.193,188.247 467.193,189.58 463.5,191.5C 462.374,190.192 462.374,188.858 463.5,187.5 Z"/></g>
<g><path style="opacity:0.456" fill="#000000" d="M 468.5,188.5 C 469.5,188.5 470.5,188.5 471.5,188.5C 471.5,192.833 471.5,197.167 471.5,201.5C 470.5,201.5 469.5,201.5 468.5,201.5C 468.5,197.167 468.5,192.833 468.5,188.5 Z"/></g>
<g><path style="opacity:0.56" fill="#000000" d="M 395.5,189.5 C 396.5,189.5 397.5,189.5 398.5,189.5C 400.167,201.5 401.833,201.5 403.5,189.5C 404.5,189.5 405.5,189.5 406.5,189.5C 402.833,205.5 399.167,205.5 395.5,189.5 Z"/></g>
<g><path style="opacity:0.628" fill="#000000" d="M 416.5,189.5 C 418.337,189.639 418.67,190.306 417.5,191.5C 416.702,191.043 416.369,190.376 416.5,189.5 Z"/></g>
<g><path style="opacity:0.488" fill="#000000" d="M 426.5,199.5 C 425.391,203.029 423.558,203.362 421,200.5C 419.922,196.771 419.755,193.104 420.5,189.5C 421.5,189.5 422.5,189.5 423.5,189.5C 423.5,190.5 423.5,191.5 423.5,192.5C 425.5,192.5 427.5,192.5 429.5,192.5C 429.5,194.833 429.5,197.167 429.5,199.5C 430.5,199.5 431.5,199.5 432.5,199.5C 432.5,197.167 432.5,194.833 432.5,192.5C 433.5,192.5 434.5,192.5 435.5,192.5C 435.5,195.5 435.5,198.5 435.5,201.5C 433.599,201.433 431.766,201.767 430,202.5C 428.401,201.929 427.234,200.929 426.5,199.5 Z M 426.5,199.5 C 425.5,199.5 424.5,199.5 423.5,199.5C 423.5,197.833 423.5,196.167 423.5,194.5C 424.5,194.5 425.5,194.5 426.5,194.5C 426.5,196.167 426.5,197.833 426.5,199.5 Z"/></g>
<g><path style="opacity:0.499" fill="#000000" d="M 490.5,189.5 C 491.5,189.5 492.5,189.5 493.5,189.5C 493.5,190.5 493.5,191.5 493.5,192.5C 497.5,193.167 497.5,193.833 493.5,194.5C 493.5,196.167 493.5,197.833 493.5,199.5C 497.302,199.895 497.469,200.895 494,202.5C 492.347,202.18 491.347,201.18 491,199.5C 488.763,203.02 486.096,203.353 483,200.5C 480.827,193.506 483.327,190.839 490.5,192.5C 490.5,191.5 490.5,190.5 490.5,189.5 Z M 485.5,194.5 C 489.019,194.187 490.353,195.52 489.5,198.5C 485.134,200.134 483.801,198.801 485.5,194.5 Z"/></g>
<g><path style="opacity:0.418" fill="#000000" d="M 503.5,189.5 C 504.675,189.281 505.675,189.614 506.5,190.5C 504.948,191.798 503.948,191.465 503.5,189.5 Z"/></g>
<g><path style="opacity:1" fill="#fed31f" d="M 368.5,191.5 C 375.167,191.5 381.833,191.5 388.5,191.5C 388.5,197.833 388.5,204.167 388.5,210.5C 381.833,210.5 375.167,210.5 368.5,210.5C 368.5,204.167 368.5,197.833 368.5,191.5 Z"/></g>
<g><path style="opacity:0.557" fill="#000000" d="M 407.5,192.5 C 412.075,191.343 414.742,193.01 415.5,197.5C 413.921,202.595 411.087,203.595 407,200.5C 406.278,197.739 406.445,195.073 407.5,192.5 Z M 409.5,194.5 C 412.084,195.048 413.084,196.715 412.5,199.5C 408.716,199.475 407.716,197.808 409.5,194.5 Z"/></g>
<g><path style="opacity:0.71" fill="#000000" d="M 416.5,192.5 C 417.765,193.514 418.431,195.014 418.5,197C 418.167,198.5 417.833,200 417.5,201.5C 416.516,198.572 416.183,195.572 416.5,192.5 Z"/></g>
<g><path style="opacity:0.676" fill="#000000" d="M 443.5,194.5 C 442.178,194.33 441.011,194.663 440,195.5C 439.808,197.577 439.308,199.577 438.5,201.5C 437.516,198.572 437.183,195.572 437.5,192.5C 440.082,192.025 442.082,192.692 443.5,194.5 Z"/></g>
<g><path style="opacity:0.522" fill="#000000" d="M 443.5,194.5 C 445.898,192.435 448.565,192.102 451.5,193.5C 452.246,194.736 452.579,196.07 452.5,197.5C 450.143,197.337 447.81,197.503 445.5,198C 447.333,199.788 449.333,199.954 451.5,198.5C 452.739,200.007 452.405,201.174 450.5,202C 444.617,202.948 442.283,200.448 443.5,194.5 Z"/></g>
<g><path style="opacity:0.53" fill="#000000" d="M 460.5,192.5 C 462.527,192.338 464.527,192.505 466.5,193C 467.38,194.356 467.714,195.856 467.5,197.5C 465.396,197.201 463.396,197.534 461.5,198.5C 463.353,199.76 465.186,199.76 467,198.5C 467.658,200.108 467.158,201.275 465.5,202C 458.474,201.762 456.808,198.596 460.5,192.5 Z"/></g>
<g><path style="opacity:0.522" fill="#000000" d="M 474.5,192.5 C 478.833,191.685 481.166,193.352 481.5,197.5C 479.143,197.337 476.81,197.503 474.5,198C 476.333,199.788 478.333,199.954 480.5,198.5C 481.739,200.007 481.405,201.174 479.5,202C 472.279,202.013 470.612,198.846 474.5,192.5 Z"/></g>
<g><path style="opacity:0.574" fill="#000000" d="M 497.5,192.5 C 500.5,192.5 503.5,192.5 506.5,192.5C 506.5,195.5 506.5,198.5 506.5,201.5C 505.5,201.5 504.5,201.5 503.5,201.5C 503.5,199.167 503.5,196.833 503.5,194.5C 502.178,194.33 501.011,194.663 500,195.5C 499.808,197.577 499.308,199.577 498.5,201.5C 497.516,198.572 497.183,195.572 497.5,192.5 Z"/></g>
<g><path style="opacity:0.6" fill="#000000" d="M 509.5,192.5 C 511.833,192.5 514.167,192.5 516.5,192.5C 516.826,196.884 516.492,201.217 515.5,205.5C 514.833,204.167 514.167,202.833 513.5,201.5C 509.86,202.637 507.86,201.137 507.5,197C 508.044,195.415 508.711,193.915 509.5,192.5 Z M 511.5,194.5 C 512.5,194.5 513.5,194.5 514.5,194.5C 515.244,197.95 513.91,199.616 510.5,199.5C 510.366,197.708 510.699,196.042 511.5,194.5 Z"/></g>
<g><path style="opacity:0.625" fill="#000000" d="M 518.5,192.5 C 519.945,194.69 521.278,197.023 522.5,199.5C 524.024,197.517 525.024,195.184 525.5,192.5C 526.484,195.428 526.817,198.428 526.5,201.5C 524.119,202.42 521.786,202.42 519.5,201.5C 518.516,198.572 518.183,195.572 518.5,192.5 Z"/></g>
<g><path style="opacity:0.547" fill="#000000" d="M 529.5,192.5 C 531.527,192.338 533.527,192.505 535.5,193C 536.38,194.356 536.714,195.856 536.5,197.5C 534.473,197.338 532.473,197.505 530.5,198C 532.202,199.718 534.035,199.885 536,198.5C 535.455,202.582 533.289,203.416 529.5,201C 526.939,198.177 526.939,195.343 529.5,192.5 Z"/></g>
<g><path style="opacity:1" fill="#003e7a" d="M 66.5,192.5 C 71.9836,192.481 73.6503,194.981 71.5,200C 64.7006,200.717 63.0339,198.217 66.5,192.5 Z"/></g>
<g><path style="opacity:1" fill="#020812" d="M 109.5,184.5 C 110.239,184.369 110.906,184.536 111.5,185C 108.04,190.752 104.707,196.585 101.5,202.5C 101.167,202.167 100.833,201.833 100.5,201.5C 103.258,195.648 106.258,189.981 109.5,184.5 Z"/></g>
<g><path style="opacity:1" fill="#020710" d="M 110.5,192.5 C 117.628,192.706 119.294,195.873 115.5,202C 109.498,202.993 107.332,200.493 109,194.5C 109.717,193.956 110.217,193.289 110.5,192.5 Z"/></g>
<g><path style="opacity:1" fill="#003b73" d="M 111.5,193.5 C 114.121,193.477 115.455,194.811 115.5,197.5C 115.253,200.779 113.753,201.779 111,200.5C 110.297,198.071 110.463,195.738 111.5,193.5 Z"/></g>
<g><path style="opacity:1" fill="#1e0a01" d="M 283.5,201.5 C 291.44,200.937 293.44,204.104 289.5,211C 286.975,211.896 284.808,211.396 283,209.5C 282.398,206.779 282.565,204.113 283.5,201.5 Z"/></g>
<g><path style="opacity:1" fill="#da380c" d="M 285.5,202.5 C 288.121,202.477 289.455,203.811 289.5,206.5C 289.253,209.779 287.753,210.779 285,209.5C 284.297,207.071 284.463,204.738 285.5,202.5 Z"/></g>
<g><path style="opacity:1" fill="#1b0801" d="M 268.5,201.5 C 272.007,200.994 275.174,201.66 278,203.5C 278.92,206.308 278.087,208.475 275.5,210C 278.379,211.666 279.212,214.166 278,217.5C 274.264,220.089 270.598,220.089 267,217.5C 265.788,214.166 266.621,211.666 269.5,210C 265.986,207.468 265.653,204.635 268.5,201.5 Z"/></g>
<g><path style="opacity:1" fill="#e73b0c" d="M 270.5,202.5 C 275.328,202.385 276.661,204.552 274.5,209C 269.785,209.031 268.452,206.865 270.5,202.5 Z"/></g>
<g><path style="opacity:1" fill="#e43b0d" d="M 270.5,210.5 C 276.054,211.11 277.387,213.61 274.5,218C 268.403,218.147 267.07,215.647 270.5,210.5 Z"/></g>
<g><path style="opacity:1" fill="#1f0a01" d="M 297.5,201.5 C 298.239,201.369 298.906,201.536 299.5,202C 296.546,208.078 293.213,213.911 289.5,219.5C 291.454,213.557 294.12,207.557 297.5,201.5 Z"/></g>
<g><path style="opacity:1" fill="#170601" d="M 298.5,209.5 C 305.628,209.706 307.294,212.873 303.5,219C 297.498,219.993 295.332,217.493 297,211.5C 297.717,210.956 298.217,210.289 298.5,209.5 Z"/></g>
<g><path style="opacity:1" fill="#d5370c" d="M 299.5,210.5 C 300.822,210.33 301.989,210.663 303,211.5C 303.667,213.5 303.667,215.5 303,217.5C 301.667,218.833 300.333,218.833 299,217.5C 298.297,215.071 298.463,212.738 299.5,210.5 Z"/></g>
<g><path style="opacity:1" fill="#569d1b" d="M 367.5,254.5 C 374.833,254.5 382.167,254.5 389.5,254.5C 389.5,261.167 389.5,267.833 389.5,274.5C 382.167,274.5 374.833,274.5 367.5,274.5C 367.5,267.833 367.5,261.167 367.5,254.5 Z"/></g>
<g><path style="opacity:0.672" fill="#000000" d="M 463.5,255.5 C 465.176,256.183 465.843,257.517 465.5,259.5C 469.923,258.425 471.923,260.092 471.5,264.5C 471.167,265.833 470.833,267.167 470.5,268.5C 468.5,259.167 466.5,259.167 464.5,268.5C 463.508,264.217 463.174,259.884 463.5,255.5 Z"/></g>
<g><path style="opacity:0.56" fill="#000000" d="M 393.5,256.5 C 394.5,256.5 395.5,256.5 396.5,256.5C 398.167,268.5 399.833,268.5 401.5,256.5C 402.5,256.5 403.5,256.5 404.5,256.5C 400.833,272.5 397.167,272.5 393.5,256.5 Z"/></g>
<g><path style="opacity:0.628" fill="#000000" d="M 414.5,256.5 C 416.337,256.639 416.67,257.306 415.5,258.5C 414.702,258.043 414.369,257.376 414.5,256.5 Z"/></g>
<g><path style="opacity:0.488" fill="#000000" d="M 424.5,266.5 C 423.391,270.029 421.558,270.362 419,267.5C 417.922,263.771 417.755,260.104 418.5,256.5C 419.5,256.5 420.5,256.5 421.5,256.5C 421.5,257.5 421.5,258.5 421.5,259.5C 423.5,259.5 425.5,259.5 427.5,259.5C 427.5,261.833 427.5,264.167 427.5,266.5C 428.5,266.5 429.5,266.5 430.5,266.5C 430.5,264.167 430.5,261.833 430.5,259.5C 431.5,259.5 432.5,259.5 433.5,259.5C 433.5,262.5 433.5,265.5 433.5,268.5C 431.599,268.433 429.766,268.767 428,269.5C 426.401,268.929 425.234,267.929 424.5,266.5 Z M 424.5,266.5 C 423.5,266.5 422.5,266.5 421.5,266.5C 421.5,264.833 421.5,263.167 421.5,261.5C 422.5,261.5 423.5,261.5 424.5,261.5C 424.5,263.167 424.5,264.833 424.5,266.5 Z"/></g>
<g><path style="opacity:0.599" fill="#000000" d="M 457.5,256.5 C 459.048,256.821 459.715,257.821 459.5,259.5C 463.5,260.167 463.5,260.833 459.5,261.5C 459.5,263.167 459.5,264.833 459.5,266.5C 460.5,266.5 461.5,266.5 462.5,266.5C 462.5,267.5 462.5,268.5 462.5,269.5C 461.07,269.579 459.736,269.246 458.5,268.5C 457.017,264.492 456.683,260.492 457.5,256.5 Z"/></g>
<g><path style="opacity:0.418" fill="#000000" d="M 505.5,256.5 C 506.675,256.281 507.675,256.614 508.5,257.5C 506.948,258.798 505.948,258.465 505.5,256.5 Z"/></g>
<g><path style="opacity:0.557" fill="#000000" d="M 405.5,259.5 C 410.075,258.343 412.742,260.01 413.5,264.5C 411.921,269.595 409.087,270.595 405,267.5C 404.278,264.739 404.445,262.073 405.5,259.5 Z M 407.5,261.5 C 410.084,262.048 411.084,263.715 410.5,266.5C 406.716,266.475 405.716,264.808 407.5,261.5 Z"/></g>
<g><path style="opacity:0.71" fill="#000000" d="M 414.5,259.5 C 415.765,260.514 416.431,262.014 416.5,264C 416.167,265.5 415.833,267 415.5,268.5C 414.516,265.572 414.183,262.572 414.5,259.5 Z"/></g>
<g><path style="opacity:0.676" fill="#000000" d="M 441.5,261.5 C 440.178,261.33 439.011,261.663 438,262.5C 437.808,264.577 437.308,266.577 436.5,268.5C 435.516,265.572 435.183,262.572 435.5,259.5C 438.082,259.025 440.082,259.692 441.5,261.5 Z"/></g>
<g><path style="opacity:0.522" fill="#000000" d="M 441.5,261.5 C 443.898,259.435 446.565,259.102 449.5,260.5C 450.246,261.736 450.579,263.07 450.5,264.5C 448.143,264.337 445.81,264.503 443.5,265C 445.333,266.788 447.333,266.954 449.5,265.5C 450.739,267.007 450.405,268.174 448.5,269C 442.617,269.948 440.283,267.448 441.5,261.5 Z"/></g>
<g><path style="opacity:0.547" fill="#000000" d="M 474.5,259.5 C 476.527,259.338 478.527,259.505 480.5,260C 481.38,261.356 481.714,262.856 481.5,264.5C 479.473,264.338 477.473,264.505 475.5,265C 477.202,266.718 479.035,266.885 481,265.5C 480.455,269.582 478.289,270.416 474.5,268C 471.939,265.177 471.939,262.343 474.5,259.5 Z"/></g>
<g><path style="opacity:0.593" fill="#000000" d="M 483.5,259.5 C 489.842,259.334 496.175,259.5 502.5,260C 503.783,262.795 503.783,265.628 502.5,268.5C 500.395,259.43 499.062,259.43 498.5,268.5C 497.5,268.5 496.5,268.5 495.5,268.5C 495.808,266.076 495.474,263.743 494.5,261.5C 493.914,261.709 493.414,262.043 493,262.5C 492.505,264.473 492.338,266.473 492.5,268.5C 491.5,268.5 490.5,268.5 489.5,268.5C 489.5,266.167 489.5,263.833 489.5,261.5C 488.178,261.33 487.011,261.663 486,262.5C 485.808,264.577 485.308,266.577 484.5,268.5C 483.516,265.572 483.183,262.572 483.5,259.5 Z"/></g>
<g><path style="opacity:0.71" fill="#000000" d="M 505.5,259.5 C 506.765,260.514 507.431,262.014 507.5,264C 507.167,265.5 506.833,267 506.5,268.5C 505.516,265.572 505.183,262.572 505.5,259.5 Z"/></g>
<g><path style="opacity:0.534" fill="#000000" d="M 510.5,259.5 C 513.167,259.5 515.833,259.5 518.5,259.5C 518.666,263.514 518.499,267.514 518,271.5C 517.586,271.957 517.086,272.291 516.5,272.5C 515.719,271.271 515.219,269.938 515,268.5C 513.221,269.479 511.555,269.146 510,267.5C 509.398,264.779 509.565,262.113 510.5,259.5 Z M 512.5,261.5 C 513.5,261.5 514.5,261.5 515.5,261.5C 515.5,263.167 515.5,264.833 515.5,266.5C 511.67,266.504 510.67,264.838 512.5,261.5 Z"/></g>
<g><path style="opacity:0.501" fill="#000000" d="M 519.5,259.5 C 520.5,259.5 521.5,259.5 522.5,259.5C 522.5,261.833 522.5,264.167 522.5,266.5C 523.5,266.5 524.5,266.5 525.5,266.5C 525.5,264.167 525.5,261.833 525.5,259.5C 526.5,259.5 527.5,259.5 528.5,259.5C 528.5,262.5 528.5,265.5 528.5,268.5C 526.131,268.851 523.797,269.018 521.5,269C 519.773,266.096 519.107,262.93 519.5,259.5 Z"/></g>
<g><path style="opacity:0.522" fill="#000000" d="M 531.5,259.5 C 535.833,258.685 538.166,260.352 538.5,264.5C 536.143,264.337 533.81,264.503 531.5,265C 533.333,266.788 535.333,266.954 537.5,265.5C 538.739,267.007 538.405,268.174 536.5,269C 529.279,269.013 527.612,265.846 531.5,259.5 Z"/></g>
</svg>
