<!-- Made by TRNEEDANAME with Figma -->

<svg width="464" height="464" viewBox="0 0 464 464" fill="none" xmlns="http://www.w3.org/2000/svg">
<rect width="464" height="464" fill="#dbe1e8"/>
<g id="newspaper_icon_darkmode 1" clip-path="url(#clip0_0_1)">
<path id="Vector" d="M464 0H0V464H464V0Z" fill="f6f6f6"/>
<g id="newspaper_icon 1">
<g id="Group">
<g id="Group_2">
<path id="Vector_2" d="M451.2 42.401C444.6 42.401 439.2 47.801 439.2 54.401V372.901C439.2 406.601 411.8 433.901 378.2 433.901H85C51.3 433.901 24 406.501 24 372.901V29.301H375.3V338.301C375.3 344.901 380.7 350.301 387.3 350.301C393.9 350.301 399.3 344.901 399.3 338.301V17.301C399.3 10.701 393.9 5.30099 387.3 5.30099H12C5.4 5.30099 0 10.701 0 17.301V372.801C0 419.701 38.1 457.801 85 457.801H378.1C425 457.801 463.1 419.701 463.1 372.801V54.401C463.2 47.801 457.8 42.401 451.2 42.401Z" fill="black"/>
<path id="Vector_2_2" d="M329.3 98.501C335.9 98.501 341.3 93.101 341.3 86.501C341.3 79.901 335.9 74.501 329.3 74.501H67.7C61.1 74.501 55.7 79.901 55.7 86.501C55.7 93.101 61.1 98.501 67.7 98.501H329.3Z" fill="black"/>
<path id="Vector_3" d="M329.3 319.101H67.7C61.1 319.101 55.7 324.501 55.7 331.101C55.7 337.701 61.1 343.101 67.7 343.101H329.2C335.8 343.101 341.2 337.701 341.2 331.101C341.2 324.501 335.9 319.101 329.3 319.101Z" fill="black"/>
<path id="Vector_4" d="M329.3 380.601H109.2C102.6 380.601 97.2 386.001 97.2 392.601C97.2 399.201 102.6 404.601 109.2 404.601H329.3C335.9 404.601 341.3 399.201 341.3 392.601C341.3 386.001 335.9 380.601 329.3 380.601Z" fill="black"/>
<path id="Vector_5" d="M51.7 140.401V270.201C51.7 276.801 57.1 282.201 63.7 282.201H194C200.6 282.201 206 276.801 206 270.201V140.401C206 133.801 200.6 128.401 194 128.401H63.7C57.1 128.401 51.7 133.801 51.7 140.401ZM75.7 152.401H182V258.201H75.7V152.401Z" fill="black"/>
<path id="Vector_6" d="M335.7 140.401H249.4C242.8 140.401 237.4 145.801 237.4 152.401C237.4 159.001 242.8 164.401 249.4 164.401H335.7C342.3 164.401 347.7 159.001 347.7 152.401C347.7 145.801 342.4 140.401 335.7 140.401Z" fill="black"/>
<path id="Vector_7" d="M335.7 194.601H249.4C242.8 194.601 237.4 200.001 237.4 206.601C237.4 213.201 242.8 218.601 249.4 218.601H335.7C342.3 218.601 347.7 213.201 347.7 206.601C347.7 200.001 342.4 194.601 335.7 194.601Z" fill="black"/>
<path id="Vector_8" d="M347.7 264.201C347.7 257.601 342.3 252.201 335.7 252.201H249.4C242.8 252.201 237.4 257.601 237.4 264.201C237.4 270.801 242.8 276.201 249.4 276.201H335.7C342.4 276.201 347.7 270.801 347.7 264.201Z" fill="black"/>
</g>
</g>
</g>
</g>
<defs>
<clipPath id="clip0_0_1">
<rect width="464" height="464" fill="white"/>
</clipPath>
</defs>
</svg>
