<svg width="448" height="424" viewBox="0 0 448 424" fill="none" xmlns="http://www.w3.org/2000/svg">
<path id="support_icon" d="M384 160.4C384 71.6 312.4 0 224 0C135.6 0 64 71.6 64 160C64 160 64 160 64 160.4C28.4 162.4 0 192 0 228V236C0 273.6 30.4 304 68 304H71.6L100 349.2C120 381.2 154 400 191.6 400H197.2C200.8 413.6 213.2 424 228 424C245.6 424 260 409.6 260 392C260 374.4 245.6 360 228 360C213.2 360 200.8 370.4 197.2 384H191.6C159.6 384 130.4 367.6 113.6 340.4L90.4 304H96C104.8 304 112 296.8 112 288V176C112 167.2 104.8 160 96 160H80C80 80.4 144.4 16 224 16C303.6 16 368 80.4 368 160H352C343.2 160 336 167.2 336 176V288C336 296.8 343.2 304 352 304H380C417.6 304 448 273.6 448 236V228C448 192 419.6 162.4 384 160.4ZM228 376C236.8 376 244 383.2 244 392C244 400.8 236.8 408 228 408C219.2 408 212 400.8 212 392C212 383.2 219.2 376 228 376ZM96 176V288H68C39.2 288 16 264.8 16 236V228C16 199.2 39.2 176 68 176H96ZM432 236C432 264.8 408.8 288 380 288H352V176H380C408.8 176 432 199.2 432 228V236Z" fill="black"/>
</svg>
