<!-- Made by TRNEEDANAME with Figma -->

<svg width="60" height="60" viewBox="0 0 60 60" fill="none" xmlns="http://www.w3.org/2000/svg">
    <rect width="60" height="60" fill="#F5F5F5"/>
    <g id="Frame 1" clip-path="url(#clip0_0_1)">
    <rect width="60" height="60" fill="#2e3440"/>
    <circle id="Ellipse 1" cx="30" cy="30" r="29.5" fill="#2e3440" stroke="white"/>
    <path id="?" d="M27.592 38.016V30.144C30.216 30.016 32.264 29.376 33.736 28.224C35.24 27.072 35.992 25.488 35.992 23.472V22.8C35.992 21.168 35.48 19.872 34.456 18.912C33.432 17.92 32.056 17.424 30.328 17.424C28.472 17.424 26.984 17.952 25.864 19.008C24.776 20.064 24.04 21.408 23.656 23.04L20.104 21.696C20.392 20.672 20.808 19.696 21.352 18.768C21.928 17.808 22.632 16.976 23.464 16.272C24.328 15.536 25.336 14.96 26.488 14.544C27.64 14.128 28.968 13.92 30.472 13.92C33.448 13.92 35.8 14.736 37.528 16.368C39.256 18 40.12 20.208 40.12 22.992C40.12 24.528 39.848 25.872 39.304 27.024C38.792 28.144 38.12 29.104 37.288 29.904C36.456 30.704 35.512 31.344 34.456 31.824C33.4 32.304 32.344 32.64 31.288 32.832V38.016H27.592ZM29.464 48.576C28.44 48.576 27.688 48.32 27.208 47.808C26.76 47.296 26.536 46.624 26.536 45.792V45.168C26.536 44.336 26.76 43.664 27.208 43.152C27.688 42.64 28.44 42.384 29.464 42.384C30.488 42.384 31.224 42.64 31.672 43.152C32.152 43.664 32.392 44.336 32.392 45.168V45.792C32.392 46.624 32.152 47.296 31.672 47.808C31.224 48.32 30.488 48.576 29.464 48.576Z" fill="white"/>
    </g>
    <defs>
    <clipPath id="clip0_0_1">
    <rect width="60" height="60" fill="#2e3440"/>
    </clipPath>
    </defs>
    </svg>
    