<!-- Icon modified by Tom Ryckewart for dark mode -->

<svg width="502" height="502" viewBox="0 0 502 502" fill="none" xmlns="http://www.w3.org/2000/svg">
<rect width="502" height="502" fill="#2e3440"/>
<g id="home_icon_lightmode 1" clip-path="url(#clip0_0_1)">
<g id="Group">
<g id="Group_2">
<path id="Vector" d="M77.23 216.986V216.486H76.73H54.015C50.1722 216.486 46.7085 214.172 45.2379 210.622C43.7673 207.071 44.5796 202.986 47.2965 200.269L244.282 3.28259C247.992 -0.42723 254.008 -0.427165 257.717 3.28255L454.704 200.269C457.421 202.986 458.234 207.073 456.763 210.623C455.292 214.172 451.828 216.487 447.986 216.487H425.271H424.771V216.987V492C424.771 497.247 420.518 501.5 415.271 501.5H295.707H206.294H86.73C81.4831 501.5 77.23 497.247 77.23 492V216.986ZM251.354 23.7884L251 23.4349L250.646 23.7884L77.8024 196.632L76.9489 197.486H78.156H86.729H415.271H423.844H425.051L424.198 196.632L251.354 23.7884ZM215.794 482V482.5H216.294H285.707H286.207V482V356.582V356.082H285.707H216.294H215.794V356.582V482ZM305.207 482V482.5H305.707H405.271V482H405.771V216.987V216.487H405.271H96.729H96.229V216.987V482V482.5H96.729H196.294H196.794V482V346.582C196.794 341.335 201.047 337.082 206.294 337.082H295.707C300.954 337.082 305.207 341.335 305.207 346.582V482Z" fill="white" stroke="white"/>
<path id="Vector_2" d="M125.198 254.693H321.699C327.222 254.693 331.699 250.216 331.699 244.693C331.699 239.17 327.222 234.693 321.699 234.693H125.198C119.675 234.693 115.198 239.17 115.198 244.693C115.198 250.216 119.675 254.693 125.198 254.693Z" fill="white"/>
<path id="Vector_3" d="M358.088 254.693H376.802C382.325 254.693 386.802 250.216 386.802 244.693C386.802 239.17 382.325 234.693 376.802 234.693H358.088C352.565 234.693 348.088 239.17 348.088 244.693C348.088 250.216 352.565 254.693 358.088 254.693Z" fill="white"/>
<path id="Vector_4" d="M235.405 396.885C229.882 396.885 225.405 401.362 225.405 406.885V422.48C225.405 428.003 229.882 432.48 235.405 432.48C240.928 432.48 245.405 428.003 245.405 422.48V406.885C245.405 401.362 240.928 396.885 235.405 396.885Z" fill="white"/>
</g>
</g>
</g>
<defs>
<clipPath id="clip0_0_1">
<rect width="502" height="502" fill="white"/>
</clipPath>
</defs>
</svg>
